<svg width="367" height="102" viewBox="0 0 367 102" fill="none" xmlns="http://www.w3.org/2000/svg">
<path d="M343.778 30.4857C343.778 28.8582 344.611 28.0444 346.278 28.0444L364.499 35.0676C366.093 35.6722 367 35.9745 367 37.5089L367 97.831C367 99.4982 366.166 100.332 364.499 100.332H350.685C349.335 100.332 348.343 99.7166 347.707 98.486L344.611 93.3651C341.793 95.7866 338.399 97.7516 334.429 99.26C330.499 100.729 326.827 101.463 323.413 101.463C317.498 101.463 312.318 100.114 307.872 97.4141C303.426 94.6751 299.992 90.8444 297.571 85.922C295.149 80.9599 293.938 75.2238 293.938 68.7135V30.4857C293.938 28.8582 294.772 28.0444 296.439 28.0444H314.66C316.288 28.0444 317.101 28.8582 317.101 30.4857V66.0936C317.101 68.8723 317.598 71.3534 318.59 73.5367C319.622 75.6803 321.071 77.3475 322.937 78.5384C324.842 79.7293 327.026 80.3248 329.487 80.3248C332.186 80.3248 334.627 79.6896 336.811 78.4193C338.994 77.1491 340.701 75.5215 341.932 73.5367C343.162 71.5121 343.778 69.4082 343.778 67.2249V30.4857Z" fill="#5F7C50"/>
<path d="M254.504 26.139C259.983 26.139 264.726 27.4093 268.736 29.9499C272.785 32.4904 275.901 36.3013 278.084 41.3825C280.307 46.4239 281.419 52.6166 281.419 59.9604V97.831C281.419 99.4982 280.585 100.332 278.918 100.332H260.697C259.903 100.332 259.288 100.114 258.851 99.6769C258.415 99.2402 258.196 98.6249 258.196 97.831V60.675C258.196 56.7053 257.323 53.609 255.576 51.386C253.83 49.163 251.269 48.0515 247.895 48.0515C245.672 48.0515 243.707 48.5874 242 49.6592C240.293 50.731 238.924 52.1601 237.891 53.9464C236.859 55.6931 236.224 57.5787 235.986 59.6032V97.831C235.986 98.6249 235.768 99.2402 235.331 99.6769C234.894 100.114 234.279 100.332 233.485 100.332H215.264C213.597 100.332 212.763 99.4982 212.763 97.831V60.675C212.763 56.7053 211.89 53.609 210.144 51.386C208.397 49.163 205.836 48.0515 202.462 48.0515C200.08 48.0515 197.977 48.6866 196.15 49.9569C194.324 51.2272 192.915 52.8945 191.923 54.9587C190.93 56.9832 190.434 59.1268 190.434 61.3895V97.831C190.434 98.6249 190.216 99.2402 189.779 99.6769C189.343 100.114 188.727 100.332 187.933 100.332H169.713C168.919 100.332 168.303 100.114 167.867 99.6769C167.43 99.2402 167.212 98.6249 167.212 97.831V30.4858C167.212 28.8582 168.045 28.0444 169.713 28.0444H183.587C184.301 28.0444 184.877 28.1833 185.313 28.4612C185.79 28.7391 186.187 29.1956 186.504 29.8308L188.41 32.5103C194.483 28.2627 201.351 26.139 209.012 26.139C213.498 26.139 217.507 26.9726 221.04 28.6399C224.613 30.3071 227.61 32.808 230.032 36.1425C236.701 29.4735 244.858 26.139 254.504 26.139Z" fill="#5F7C50"/>
<path d="M130.619 21.1384C128.992 21.1384 128.178 20.3048 128.178 18.6375V2.50089C128.178 0.83363 128.992 0 130.619 0L149.019 11.1636C150.246 11.79 151.519 12.6969 151.519 13.6645V18.6375C151.519 20.3048 150.686 21.1384 149.019 21.1384H130.619ZM151.4 97.8917C151.4 98.6857 151.182 99.301 150.745 99.7376C150.309 100.174 149.693 100.393 148.9 100.393H130.679C129.885 100.393 129.27 100.174 128.833 99.7376C128.396 99.301 128.178 98.6857 128.178 97.8917V30.5465C128.178 28.9189 129.012 28.1052 130.679 28.1052H148.9C150.567 28.1052 151.4 28.9189 151.4 30.5465V97.8917Z" fill="#5F7C50"/>
<path d="M87.2927 26.139C92.7709 26.139 97.5146 27.4093 101.524 29.9499C105.573 32.4904 108.689 36.3013 110.872 41.3825C113.096 46.4239 114.207 52.6166 114.207 59.9604V97.831C114.207 99.4982 113.373 100.332 111.706 100.332H93.4854C92.6915 100.332 92.0762 100.114 91.6395 99.6769C91.2029 99.2402 90.9845 98.6249 90.9845 97.831V60.675C90.9845 56.7053 90.1112 53.609 88.3645 51.386C86.6179 49.163 84.0575 48.0515 80.6833 48.0515C78.4603 48.0515 76.4953 48.5874 74.7883 49.6592C73.0814 50.731 71.7118 52.1601 70.6797 53.9464C69.6476 55.6931 69.0125 57.5787 68.7743 59.6032V97.831C68.7743 98.6249 68.556 99.2402 68.1193 99.6769C67.6826 100.114 67.0673 100.332 66.2734 100.332H48.0527C46.3854 100.332 45.5518 99.4982 45.5518 97.831V60.675C45.5518 56.7053 44.6785 53.609 42.9318 51.386C41.1852 49.163 38.6248 48.0515 35.2505 48.0515C32.8688 48.0515 30.7648 48.6866 28.9388 49.9569C27.1128 51.2272 25.7035 52.8945 24.7111 54.9587C23.7187 56.9832 23.2225 59.1268 23.2225 61.3895V97.831C23.2225 98.6249 23.0042 99.2402 22.5675 99.6769C22.1308 100.114 21.5155 100.332 20.7216 100.332H2.50088C1.70695 100.332 1.09166 100.114 0.654993 99.6769C0.218331 99.2402 0 98.6249 0 97.831V30.4858C0 28.8582 0.833628 28.0444 2.50088 28.0444H16.3748C17.0894 28.0444 17.665 28.1833 18.1016 28.4612C18.578 28.7391 18.975 29.1956 19.2925 29.8308L21.198 32.5103C27.2715 28.2627 34.139 26.139 41.8005 26.139C46.2862 26.139 50.2955 26.9726 53.8285 28.6399C57.4012 30.3071 60.3983 32.808 62.8198 36.1425C69.4888 29.4735 77.6465 26.139 87.2927 26.139Z" fill="#5F7C50"/>
</svg>
